<svg width="31" height="30" viewBox="0 0 31 30" fill="none" xmlns="http://www.w3.org/2000/svg">
<g clip-path="url(#clip0_78_305)">
<path d="M26.5033 25.5617H22.0583V18.6004C22.0583 16.9405 22.0286 14.8035 19.7464 14.8035C17.4312 14.8035 17.077 16.6122 17.077 18.4796V25.5612H12.6321V11.2461H16.8992V13.2024H16.959C17.386 12.4722 18.0031 11.8715 18.7445 11.4643C19.486 11.0571 20.324 10.8586 21.1693 10.89C25.6746 10.89 26.5052 13.8534 26.5052 17.7086L26.5033 25.5617ZM7.61643 9.2894C6.19178 9.28964 5.03666 8.13487 5.03643 6.71023C5.03619 5.28558 6.19084 4.13046 7.61549 4.13023C9.04014 4.12987 10.1953 5.28464 10.1955 6.70929C10.1956 7.39343 9.92396 8.04961 9.4403 8.53347C8.95663 9.01733 8.30057 9.28925 7.61643 9.2894ZM9.839 25.5618H5.38928V11.2461H9.83889V25.5617L9.839 25.5618ZM28.7193 0.00206135H3.15568C1.94748 -0.0115324 0.95666 0.956319 0.941895 2.16452V27.8348C0.956191 29.0436 1.94689 30.0124 3.15557 29.9997H28.7193C29.9306 30.0147 30.9251 29.0459 30.9419 27.8348V2.16253C30.9247 0.951983 29.93 -0.0157511 28.7193 6.91671e-05" fill="#0A66C2"/>
</g>
<defs>
<clipPath id="clip0_78_305">
<rect width="30" height="30" fill="white" transform="translate(0.942139)"/>
</clipPath>
</defs>
</svg>
