<svg width="30" height="30" viewBox="0 0 30 30" fill="none" xmlns="http://www.w3.org/2000/svg">
<g clip-path="url(#clip0_78_309)">
<path d="M30 15C30 6.71578 23.2842 0 15 0C6.71578 0 0 6.71566 0 15C0 22.4869 5.48531 28.6925 12.6562 29.8178V19.3359H8.84766V15H12.6562V11.6953C12.6562 7.93594 14.8957 5.85938 18.3219 5.85938C19.9631 5.85938 21.6797 6.15234 21.6797 6.15234V9.84375H19.7883C17.9248 9.84375 17.3438 11 17.3438 12.1863V15H21.5039L20.8389 19.3359H17.3438V29.8178C24.5147 28.6925 30 22.487 30 15Z" fill="#1877F2"/>
<path d="M20.8389 19.3359L21.5039 15H17.3438V12.1863C17.3438 10.9999 17.9249 9.84375 19.7883 9.84375H21.6797V6.15234C21.6797 6.15234 19.9631 5.85938 18.3219 5.85938C14.8957 5.85938 12.6562 7.93594 12.6562 11.6953V15H8.84766V19.3359H12.6562V29.8178C13.4316 29.9393 14.2152 30.0002 15 30C15.7848 30.0002 16.5684 29.9393 17.3438 29.8178V19.3359H20.8389Z" fill="white"/>
</g>
<defs>
<clipPath id="clip0_78_309">
<rect width="30" height="30" fill="white"/>
</clipPath>
</defs>
</svg>
