<svg width="31" height="30" viewBox="0 0 31 30" fill="none" xmlns="http://www.w3.org/2000/svg">
<g clip-path="url(#clip0_78_314)">
<path d="M10.5087 0.98673C7.51121 2.02658 4.9262 4.00024 3.13334 6.61783C1.34048 9.23541 0.43428 12.3589 0.547837 15.5296C0.661394 18.7003 1.78873 21.751 3.76425 24.2336C5.73977 26.7162 8.45934 28.4999 11.5235 29.3227C14.0077 29.9637 16.6104 29.9918 19.1079 29.4047C21.3704 28.8965 23.4621 27.8095 25.1782 26.25C26.9643 24.5774 28.2608 22.4496 28.9282 20.0953C29.6534 17.5351 29.7825 14.8428 29.3056 12.225H15.3555V18.0117H23.4345C23.273 18.9347 22.927 19.8155 22.4172 20.6017C21.9073 21.3878 21.2441 22.0629 20.4673 22.5867C19.4809 23.2395 18.3687 23.6787 17.2024 23.8758C16.0328 24.0933 14.833 24.0933 13.6634 23.8758C12.4778 23.631 11.3563 23.1416 10.3704 22.4391C8.78637 21.3178 7.59698 19.7248 6.97196 17.8875C6.33654 16.0157 6.33654 13.9866 6.97196 12.1149C7.41686 10.8029 8.15235 9.6083 9.12352 8.62032C10.2349 7.46895 11.642 6.64594 13.1903 6.2416C14.7386 5.83725 16.3684 5.86719 17.9009 6.32814C19.098 6.69546 20.1928 7.33754 21.0977 8.20314C22.0087 7.29689 22.9181 6.38829 23.8259 5.47735C24.2946 4.98751 24.8056 4.5211 25.2673 4.01954C23.8857 2.73404 22.2641 1.73369 20.4954 1.07579C17.2744 -0.093763 13.75 -0.125194 10.5087 0.98673Z" fill="white"/>
<path d="M10.5087 0.986709C13.7498 -0.12597 17.2742 -0.0953667 20.4955 1.07343C22.2645 1.7358 23.8853 2.74096 25.265 4.03124C24.7962 4.5328 24.3017 5.00155 23.8236 5.48905C22.9142 6.39687 22.0056 7.30155 21.0978 8.20312C20.1929 7.33752 19.0981 6.69544 17.9009 6.32811C16.369 5.86555 14.7393 5.83388 13.1905 6.23657C11.6418 6.63927 10.2338 7.46076 9.12124 8.61093C8.15007 9.5989 7.41458 10.7935 6.96968 12.1055L2.11108 8.34374C3.85017 4.89506 6.86128 2.25708 10.5087 0.986709Z" fill="#E33629"/>
<path d="M0.821868 12.0703C1.08282 10.776 1.51638 9.52264 2.11093 8.34375L6.96952 12.1148C6.33411 13.9866 6.33411 16.0157 6.96952 17.8875C5.35077 19.1375 3.73124 20.3938 2.11093 21.6563C0.623003 18.6945 0.16921 15.3199 0.821868 12.0703Z" fill="#F8BD00"/>
<path d="M15.3555 12.2227H29.3055C29.7825 14.8405 29.6534 17.5328 28.9282 20.093C28.2608 22.4472 26.9643 24.575 25.1782 26.2477C23.6102 25.0242 22.0352 23.8102 20.4673 22.5867C21.2446 22.0624 21.9081 21.3865 22.418 20.5995C22.9278 19.8126 23.2736 18.9308 23.4344 18.007H15.3555C15.3532 16.0805 15.3555 14.1516 15.3555 12.2227Z" fill="#587DBD"/>
<path d="M2.10864 21.6563C3.72896 20.4063 5.34849 19.15 6.96724 17.8875C7.5935 19.7255 8.78459 21.3185 10.3704 22.4391C11.3593 23.1384 12.4832 23.6237 13.6704 23.8641C14.84 24.0816 16.0398 24.0816 17.2094 23.8641C18.3757 23.6669 19.4879 23.2278 20.4743 22.575C22.0422 23.7984 23.6172 25.0125 25.1852 26.236C23.4693 27.7962 21.3776 28.8841 19.1149 29.393C16.6174 29.9801 14.0147 29.952 11.5305 29.3109C9.56576 28.7864 7.73054 27.8616 6.13989 26.5945C4.45644 25.2577 3.08138 23.5733 2.10864 21.6563Z" fill="#319F43"/>
</g>
<defs>
<clipPath id="clip0_78_314">
<rect width="30" height="30" fill="white" transform="translate(0.0578613)"/>
</clipPath>
</defs>
</svg>
